<?xml version="1.0" standalone="no"?>
<!DOCTYPE svg PUBLIC "-//W3C//DTD SVG 20010904//EN"
 "http://www.w3.org/TR/2001/REC-SVG-20010904/DTD/svg10.dtd">
<svg version="1.0" xmlns="http://www.w3.org/2000/svg"
 width="410.000000pt" height="410.000000pt" viewBox="0 0 410.000000 410.000000"
 preserveAspectRatio="xMidYMid meet">
<metadata>
Created by potrace 1.11, written by Peter Selinger 2001-2013
</metadata>
<g transform="translate(0.000000,410.000000) scale(0.100000,-0.100000)"
fill="#000000" stroke="none">
<path d="M1380 3464 c-96 -18 -188 -41 -270 -66 -301 -95 -586 -297 -777 -548
-28 -38 -54 -66 -58 -62 -4 4 -6 3 -5 -3 5 -22 -1 -36 -12 -29 -7 5 -8 3 -4
-5 5 -7 1 -20 -7 -29 -25 -28 -91 -171 -121 -262 -88 -263 -89 -549 -4 -805
66 -200 181 -386 336 -543 47 -48 84 -91 83 -97 -2 -5 1 -7 4 -3 10 10 96 -62
89 -73 -3 -5 1 -6 9 -3 8 3 27 -6 43 -19 76 -63 275 -163 419 -211 175 -59
254 -71 465 -71 206 0 273 11 413 66 237 94 502 282 732 521 184 192 326 360
470 556 33 45 65 82 71 82 6 0 41 -44 78 -97 71 -104 104 -151 233 -328 80
-112 92 -126 172 -219 88 -102 205 -186 258 -186 24 0 30 26 35 138 l3 64 -39
26 c-34 23 -103 96 -181 193 -64 78 -145 190 -252 349 -32 47 -63 90 -69 96
-6 7 -32 43 -58 81 l-47 70 18 31 c44 75 366 525 433 607 52 63 166 175 178
175 15 0 17 155 2 194 -9 25 -10 25 -52 10 -94 -33 -190 -117 -303 -265 -27
-35 -54 -69 -60 -75 -6 -6 -28 -37 -50 -70 -22 -32 -42 -61 -45 -64 -3 -3 -17
-21 -30 -40 -13 -19 -27 -37 -30 -40 -3 -3 -27 -39 -55 -80 -27 -41 -52 -77
-55 -80 -3 -3 -23 -31 -44 -63 l-37 -58 -105 138 c-215 282 -402 490 -609 677
-127 115 -363 271 -501 331 -41 18 -69 35 -62 37 7 3 0 5 -17 5 -16 0 -66 10
-110 23 -69 20 -105 24 -265 26 -102 1 -196 0 -210 -2z m418 -233 c84 -22 233
-81 227 -91 -2 -3 8 -7 22 -8 30 -2 191 -106 300 -193 117 -94 301 -282 451
-459 11 -14 30 -36 42 -50 59 -68 266 -343 274 -364 7 -19 -4 -40 -74 -137
-46 -63 -97 -130 -114 -150 -17 -19 -44 -53 -61 -74 -198 -259 -483 -532 -708
-678 -63 -42 -255 -127 -338 -151 -139 -40 -365 -40 -524 0 -153 39 -424 158
-417 184 1 6 -2 9 -7 6 -16 -10 -128 73 -221 164 -196 191 -293 357 -352 599
-27 114 -29 311 -4 426 39 180 141 389 234 482 20 20 30 33 22 29 -8 -5 25 32
74 82 50 50 91 90 93 88 2 -2 17 9 33 24 88 82 288 188 450 238 206 64 433 76
598 33z"/>
<path d="M1378 3195 c-307 -50 -623 -236 -820 -482 -14 -18 -28 -30 -30 -27
-3 2 -5 -2 -5 -9 0 -6 -17 -39 -38 -71 -56 -88 -102 -193 -132 -303 -24 -87
-27 -115 -27 -253 0 -154 7 -201 49 -325 50 -149 143 -297 266 -425 45 -47 81
-89 80 -95 -2 -5 0 -7 4 -3 4 4 30 -11 58 -33 57 -46 229 -149 247 -149 6 0 9
-4 6 -8 -3 -5 0 -9 7 -9 7 0 66 -19 133 -42 207 -71 459 -90 618 -46 32 8 68
13 80 10 15 -5 17 -4 7 3 -10 7 -4 13 25 22 62 21 144 61 144 71 0 15 -88 173
-99 177 -5 2 -42 -11 -81 -28 -111 -49 -195 -63 -335 -57 -68 4 -154 15 -200
26 -88 22 -232 80 -275 111 -16 11 -33 20 -39 20 -6 0 -11 5 -11 10 0 6 -3 9
-8 8 -15 -5 -113 72 -106 84 5 7 3 8 -6 3 -15 -9 -128 106 -195 200 -46 65
-54 82 -33 69 7 -4 8 -3 4 5 -4 6 -11 9 -16 6 -8 -5 -37 54 -32 68 1 4 -2 7
-8 7 -5 0 -22 37 -37 83 -25 76 -27 94 -27 242 0 155 1 163 33 248 36 100 109
229 124 220 6 -4 7 -1 2 6 -9 15 33 63 48 54 6 -4 7 -1 2 6 -9 15 43 73 58 64
6 -3 7 -1 4 5 -4 5 21 35 55 64 86 74 126 101 139 92 8 -4 9 -3 5 4 -9 14 218
126 239 118 8 -3 15 -2 15 3 0 12 107 37 214 52 71 9 109 9 178 -1 48 -7 88
-17 88 -21 0 -5 6 -6 14 -3 8 3 54 -11 101 -31 48 -21 90 -34 94 -29 5 5 28
47 52 92 42 81 43 84 24 98 -24 18 -158 70 -233 90 -81 22 -314 27 -424 9z"/>
<path d="M1420 2935 c-41 -8 -104 -23 -139 -34 -36 -11 -69 -17 -75 -14 -6 3
-8 3 -4 -2 4 -4 -30 -25 -75 -47 -134 -65 -304 -201 -360 -289 -11 -16 -24
-26 -30 -22 -7 3 -9 3 -5 -1 4 -5 -4 -25 -16 -45 -160 -252 -175 -532 -43
-786 33 -64 100 -158 151 -214 97 -105 289 -223 448 -276 80 -26 242 -55 313
-55 46 0 168 23 236 44 49 15 129 53 129 61 0 7 -81 157 -93 173 -10 13 -38
13 -48 -1 -14 -18 -131 -50 -205 -54 -161 -11 -385 64 -524 175 -64 51 -140
134 -133 145 3 6 1 7 -5 3 -13 -8 -39 28 -81 111 -59 119 -75 249 -45 367 18
72 72 186 91 193 7 3 11 8 8 12 -7 12 86 112 97 105 6 -4 8 -2 4 4 -10 17 101
98 209 152 115 57 242 90 346 90 71 0 171 -20 219 -45 49 -24 70 -28 70 -10 0
10 5 13 12 9 6 -4 8 -3 4 4 -5 9 29 86 53 116 5 6 12 21 15 34 6 17 3 22 -10
22 -14 0 -15 2 -3 18 12 15 12 16 -2 4 -14 -10 -25 -9 -65 9 -131 56 -291 71
-444 44z"/>
<path d="M1133 2389 c-75 -22 -106 -115 -63 -187 50 -82 183 -63 219 31 12 33
12 42 -3 81 -25 66 -84 95 -153 75z"/>
</g>
</svg>
